<svg id="Checkmark" xmlns="http://www.w3.org/2000/svg" viewBox="0 0 650 157.42"><defs><style>.cls-1{fill:#05122d;}.cls-2{fill:#2581fc;}</style></defs><polygon class="cls-1" points="279.44 0 279.44 24.15 225 78.58 195.76 49.34 195.76 25.23 224.97 54.45 279.44 0"/><path class="cls-2" d="M381.63,503h14.95l-32.51,86.56H347.63L315,503h15.19l25.66,72Z" transform="translate(-315 -433.29)"/><path class="cls-2" d="M437.93,590.71c-19.68,0-34.25-14-34.25-35.49s13.95-35.38,34.25-35.38c19.55,0,33.38,13.58,33.38,33.76a44.26,44.26,0,0,1-.5,7H418.37c1,11.34,9.09,18.19,19.56,18.19,8.72,0,13.57-4.24,16.19-9.6h15.32C465.58,581.12,454.74,590.71,437.93,590.71Zm-19.43-41.6h38c-.24-10.58-8.59-17.31-19.18-17.31C427.71,531.8,420,538.28,418.5,549.11Z" transform="translate(-315 -433.29)"/><path class="cls-2" d="M499.45,589.59h-14.2V521h14.2v10c4-6.85,10.84-11.09,20.55-11.09v14.7h-3.61c-10.46,0-16.94,4.36-16.94,18.93Z" transform="translate(-315 -433.29)"/><path class="cls-2" d="M533.08,521h14.2v68.63h-14.2Z" transform="translate(-315 -433.29)"/><path class="cls-1" d="M590.87,590.71c-16.44,0-28-9.71-28.65-22.17h14.7c.49,5.61,5.85,10.22,13.7,10.22,8.22,0,12.58-3.49,12.58-8.23,0-13.45-39.86-5.72-39.86-30.88,0-11,10.21-19.81,26.41-19.81,15.56,0,25.78,8.35,26.52,22H602.08c-.5-6-5.11-10.09-12.83-10.09s-11.59,3.11-11.59,7.72c0,13.83,38.74,6.1,39.49,30.89C617.15,582,607.06,590.71,590.87,590.71Z" transform="translate(-315 -433.29)"/><path class="cls-1" d="M661.36,519.84c16.81,0,27.77,8.35,31.63,22.8H677.68c-2.37-6.61-7.85-10.84-16.32-10.84-11.46,0-19.06,8.47-19.06,23.42s7.6,23.54,19.06,23.54c8.47,0,13.7-3.74,16.32-10.84H693c-3.86,13.45-14.82,22.79-31.63,22.79-19.68,0-33.63-14-33.63-35.49S641.68,519.84,661.36,519.84Z" transform="translate(-315 -433.29)"/><path class="cls-1" d="M737,590.71c-19.56,0-34.38-14-34.38-35.49s15.45-35.38,35-35.38,35,13.83,35,35.38S756.64,590.71,737,590.71Zm0-12.33c10.58,0,21-7.6,21-23.16s-10.09-23.05-20.68-23.05S717,539.65,717,555.22,726.25,578.38,737,578.38Z" transform="translate(-315 -433.29)"/><path class="cls-1" d="M848.8,589.59H834.6v-8.22c-4.48,5.85-12.2,9.22-20.3,9.22-16.07,0-28.27-10.09-28.27-29.27V521H800.1V559.2c0,12.58,6.85,19.06,17.19,19.06s17.31-6.48,17.31-19.06V521h14.2Z" transform="translate(-315 -433.29)"/><path class="cls-1" d="M869.72,532.55h-8.09V521h8.09V503.9H884V521h16.69v11.59H884v38c0,5.11,2,7.23,8,7.23h8.71v11.83H889.52c-12.2,0-19.8-5.11-19.8-19.06Z" transform="translate(-315 -433.29)"/><path class="cls-1" d="M938.72,590.71c-16.44,0-28-9.71-28.65-22.17h14.7c.5,5.61,5.85,10.22,13.7,10.22,8.22,0,12.58-3.49,12.58-8.23,0-13.45-39.86-5.72-39.86-30.88,0-11,10.22-19.81,26.41-19.81,15.57,0,25.78,8.35,26.53,22h-14.2c-.5-6-5.11-10.09-12.83-10.09s-11.58,3.11-11.58,7.72c0,13.83,38.73,6.1,39.48,30.89C965,582,954.91,590.71,938.72,590.71Z" transform="translate(-315 -433.29)"/></svg>