<svg xmlns="http://www.w3.org/2000/svg" viewBox="0 0 898.93 252.74">
  <defs>
    <style>
      .cls-1 {
        fill: #2e3085;
      }

      .cls-1, .cls-2 {
        stroke: #2e3085;
        stroke-linecap: round;
        stroke-linejoin: round;
      }

      .cls-2 {
        fill: none;
      }
    </style>
  </defs>
  <g id="Logo">
    <g>
      <path class="cls-1" d="M184,377.67,233,519.54l47.46-141.87h12L233,551,172,377.67Z" transform="translate(-171.54 -298.76)"/>
      <path class="cls-1" d="M302.92,494.56c0,26,19,43,40.46,43,16.49,0,29-9.74,35.47-23.23l8.49,5c-6,11.49-19.48,27.72-44.71,27.72-31.72,0-50.2-23.48-50.2-53.2,0-35.47,24.48-53.7,49.45-53.7,27.48,0,48.21,22,48.21,54.45Zm76.68-9.49c-2.5-20.23-17.49-35.47-37.72-35.47-20.73,0-35.46,15.74-38.21,35.47Z" transform="translate(-171.54 -298.76)"/>
      <path class="cls-1" d="M419.56,442.36h10v13.23c3.75-8.74,11.49-15.48,22.48-15.48a23.66,23.66,0,0,1,10.74,2.5l-5,9c-1-.75-3-2-7.5-2-20.48,0-20.73,27.23-20.73,40v54.7h-10Z" transform="translate(-171.54 -298.76)"/>
      <rect class="cls-1" x="312.96" y="143.59" width="9.99" height="101.91"/>
      <path class="cls-1" d="M573.92,461.09a18.64,18.64,0,0,0-17.74-11.49c-11.48,0-17.23,8.74-17.23,16.24,0,10,8,13.23,18,17.23,10.24,4,19.74,6.74,26.23,15,4.25,5.24,5.25,10.74,5.25,16.48,0,23.23-17.49,32.47-33.22,32.47-17,0-31-10-35.22-27l9.74-3c3.5,13.49,14.24,20.48,25.48,20.48,13,0,22.73-9.24,22.73-22.48,0-11.49-7.25-15.74-22.73-22-10.24-4.25-17.74-7.49-22.23-13.49a21.36,21.36,0,0,1-4.5-13.24c0-15.48,11.74-26.22,27.22-26.22,12,0,22,5.49,26.73,16.48Z" transform="translate(-171.54 -298.76)"/>
      <path class="cls-1" d="M695.56,466.33c-6.74-7.74-18.48-16.73-35.22-16.73-25,0-42.46,19.23-42.46,44.21,0,29.22,22.23,43.71,42,43.71,16.24,0,29-9.49,37-18.23v13.48A55.56,55.56,0,0,1,659.59,547c-30.72,0-52.2-22.73-52.2-52.95s20.23-53.95,53-53.95a53.56,53.56,0,0,1,35.22,13Z" transform="translate(-171.54 -298.76)"/>
      <path class="cls-1" d="M824.69,493.56c0,30.22-23.23,53.45-53.45,53.45s-53.45-23.23-53.45-53.45,23.23-53.45,53.45-53.45S824.69,463.34,824.69,493.56Zm-10.49,0c0-24.73-18.48-44-43-44s-43,19.23-43,44,18.48,44,43,44S814.2,518.29,814.2,493.56Z" transform="translate(-171.54 -298.76)"/>
      <path class="cls-1" d="M864.15,442.36V503.8c0,7.24.25,18,6.5,25.48s15.48,8.24,20.23,8.24,14-.75,20.23-8.24,6.5-18.24,6.5-25.48V442.36h10v64.19c0,8.24-.75,19-7.75,28-7.74,10-20,12.49-29,12.49s-21.23-2.5-29-12.49c-7-9-7.75-19.73-7.75-28V442.36Z" transform="translate(-171.54 -298.76)"/>
      <path class="cls-1" d="M974.3,451.85v92.41h-10V451.85H953.07v-9.49h11.24V405.89h10v36.47H992v9.49Z" transform="translate(-171.54 -298.76)"/>
      <path class="cls-1" d="M1055.48,461.09a18.64,18.64,0,0,0-17.74-11.49c-11.49,0-17.23,8.74-17.23,16.24,0,10,8,13.23,18,17.23,10.24,4,19.73,6.74,26.23,15,4.24,5.24,5.24,10.74,5.24,16.48,0,23.23-17.48,32.47-33.22,32.47-17,0-31-10-35.21-27l9.74-3c3.49,13.49,14.23,20.48,25.47,20.48,13,0,22.73-9.24,22.73-22.48,0-11.49-7.24-15.74-22.73-22-10.24-4.25-17.73-7.49-22.23-13.49a21.42,21.42,0,0,1-4.49-13.24c0-15.48,11.74-26.22,27.22-26.22,12,0,22,5.49,26.73,16.48Z" transform="translate(-171.54 -298.76)"/>
    </g>
    <path class="cls-2" d="M170.59,295.3" transform="translate(-171.54 -298.76)"/>
  </g>
  <g id="Checkmark">
    <polygon class="cls-1" points="400.09 0.5 400.09 36.95 317.92 119.12 273.78 74.98 273.78 38.59 317.88 82.68 400.09 0.5"/>
  </g>
</svg>
